<svg width="200" height="200" viewBox="0 0 200 200" fill="none" xmlns="http://www.w3.org/2000/svg">
<path d="M0 66.8C0 41.7506 0 29.2259 5.41146 19.9094C8.90244 13.8992 13.8992 8.90244 19.9094 5.41146C29.2259 0 41.7506 0 66.8 0H133.2C158.249 0 170.774 0 180.091 5.41146C186.101 8.90244 191.098 13.8992 194.589 19.9094C200 29.2259 200 41.7506 200 66.8V133.2C200 158.249 200 170.774 194.589 180.091C191.098 186.101 186.101 191.098 180.091 194.589C170.774 200 158.249 200 133.2 200H66.8C41.7506 200 29.2259 200 19.9094 194.589C13.8992 191.098 8.90244 186.101 5.41146 180.091C0 170.774 0 158.249 0 133.2V66.8Z" fill="black"/>
<path fill-rule="evenodd" clip-rule="evenodd" d="M105.466 52.7615C108.943 54.7152 114.333 56.8078 121.547 58.618C129.21 61.6095 140.987 71.293 133.562 87.6685C132.69 89.5934 131.552 91.6107 130.111 93.7204C130.111 91.8086 129.898 89.5257 129.384 87.1398C127.641 79.0467 122.426 69.7685 110.249 69.7657C108.977 69.7654 107.63 69.8662 106.203 70.08L114.41 102.675C118.097 110.555 119.263 127.82 94.4276 133.838C85.9827 133.121 72.8038 126.459 87.6479 105.541C89.9254 103.254 95.5334 99.1643 102.125 98.189C103.451 97.9928 104.816 97.9227 106.203 98.0187L94.4276 50.3797C84.5948 33.7286 30 19.7592 30 74.2038C30 82.1568 38.1914 126.602 97.2822 165C123.212 147.926 169.36 105.541 169.36 70.0801C169.36 48.4413 144.779 17.1148 105.228 47.8276C104.188 48.635 103.138 49.4853 102.078 50.3797C102.858 51.1271 103.989 51.9318 105.466 52.7615ZM116.404 74.9534C114.987 74.3334 113.294 73.9013 111.263 73.7924L118.2 101.346C120.28 106.009 121.619 113.261 118.843 120.404C115.898 127.982 108.703 134.494 95.3696 137.725L94.7375 137.878L94.0895 137.823C89.3617 137.422 82.2959 135.318 78.8306 129.248C75.1519 122.804 76.6718 114.096 84.3857 103.226L84.5787 102.954L84.8141 102.718C86.4884 101.037 89.4161 98.7534 93.0775 96.9476C95.4154 95.7945 98.1633 94.782 101.161 94.2909L90.6968 51.9556C88.6994 48.9311 84.4388 45.5972 78.6301 43.0949C72.6304 40.5103 65.5405 39.0638 58.8566 39.6172C52.2215 40.1666 46.1529 42.6576 41.7076 47.7898C37.2441 52.9429 34 61.2414 34 74.2038C34 80.6488 41.2567 122.847 97.2606 160.197C109.741 151.663 126.31 137.74 140.014 121.825C154.675 104.797 165.36 86.2878 165.36 70.0802C165.36 60.2373 159.515 48.0184 149.288 42.2986C140.264 37.2513 126.691 36.7191 108.907 50.0502C109.406 50.2954 109.951 50.5483 110.542 50.8071C113.554 52.1241 117.549 53.4908 122.52 54.7383L122.766 54.7999L123.001 54.8919C127.895 56.8023 134.436 61.1314 137.79 68.1825C141.311 75.5828 140.887 85.0356 133.413 95.9767L126.111 106.667V93.7204C126.111 89.7023 125.02 83.9656 122.05 79.7134C120.606 77.6459 118.76 75.9844 116.404 74.9534Z" fill="white"/>
</svg>
