<svg width="741" height="154" viewBox="0 0 741 154" fill="none" xmlns="http://www.w3.org/2000/svg">
<path fill-rule="evenodd" clip-rule="evenodd" d="M69.8089 28.7994C69.615 28.4683 69.4049 28.1381 69.1795 27.8094C57.0207 10.0804 0 -3.56505 0 54.8226C0 63.5098 8.87556 112.058 72.902 154C100.997 135.35 151 89.0521 151 50.3183C151 27.0129 125.106 -6.58021 83.3012 24.6424C81.5931 25.9182 79.8584 27.3021 78.0978 28.7994C79.2802 29.9415 81.2085 31.206 83.8626 32.4966C87.5729 34.3008 92.7015 36.1559 99.193 37.7981C106.904 40.8327 118.46 50.1715 113.626 65.8145C112.642 68.9958 110.981 72.4379 108.472 76.1408C108.472 73.1746 108.008 69.3908 106.803 65.6282C104.45 58.2872 99.2742 51.0273 89.2121 50.0792C87.1986 49.8894 84.9893 49.9524 82.5678 50.3182L91.4603 85.9221C95.4556 94.5296 96.7186 113.388 69.8089 119.961C60.6586 119.179 46.379 111.901 62.4629 89.0521C64.6814 86.8071 69.8163 82.9696 76.0199 81.4433C78.1052 80.9302 80.3112 80.6783 82.5678 80.8358L69.8089 28.7994ZM117.56 105.414C103.282 122.131 86.0916 136.828 72.862 146.111C13.8691 105.907 6.50115 61.0518 6.50115 54.8226C6.50115 41.018 9.92512 32.5198 14.3235 27.4007C18.6923 22.3159 24.6918 19.7843 31.4456 19.2206C38.2789 18.6502 45.6053 20.1433 51.8345 22.8485C57.7203 25.4045 61.826 28.6815 63.7566 31.4277L74.4599 75.0809C71.8513 75.7248 69.4643 76.6739 67.3875 77.7065C63.2039 79.7867 59.8373 82.4228 57.8571 84.4266L57.4747 84.8137L57.161 85.2593C48.6445 97.3579 46.3998 107.86 51.0272 116.031C55.3077 123.589 63.8629 126.03 69.2594 126.492L70.3126 126.582L71.3398 126.331C86.2839 122.68 94.772 115.189 98.2837 106.078C101.517 97.6894 100.004 89.2441 97.6237 83.7571L90.944 57.0132C91.606 57.188 92.2064 57.4022 92.7519 57.6428C94.8813 58.5822 96.5859 60.1063 97.9616 62.0918C100.846 66.2549 101.971 72.0351 101.971 76.1408V97.3538L113.84 79.8376C122.276 67.3885 122.965 56.2369 118.75 47.307C114.806 38.9492 107.191 33.9102 101.557 31.693L101.174 31.5423L100.775 31.4414C96.3892 30.3318 92.7471 29.1419 89.8469 27.9817C107.085 16.0959 119.864 17.1822 128.194 21.879C138.505 27.693 144.499 40.2555 144.499 50.3183C144.499 67.1905 133.383 86.8887 117.56 105.414Z" fill="white"/>
<mask id="path-2-outside-1_268_1203" maskUnits="userSpaceOnUse" x="183" y="36" width="549" height="92" fill="black">
<rect fill="white" x="183" y="36" width="549" height="92"/>
<path d="M189.98 126C186.34 126 184.52 124.18 184.52 120.54V43.32C184.52 39.68 186.34 37.86 189.98 37.86C193.62 37.86 195.44 39.68 195.44 43.32V74.195L228.59 39.94C231.103 37.2533 233.66 37.21 236.26 39.81C238.947 42.3233 238.99 44.88 236.39 47.48L208.765 76.015L241.33 116.51C243.54 119.413 243.28 121.97 240.55 124.18C237.733 126.477 235.177 126.217 232.88 123.4L201.095 84.01L195.44 89.86V120.54C195.44 124.18 193.62 126 189.98 126ZM286.819 126C276.895 126 269.55 123.638 264.784 118.915C260.06 114.148 257.699 106.803 257.699 96.88V66.85C257.699 56.84 260.082 49.495 264.849 44.815C269.615 40.0917 276.939 37.7733 286.819 37.86H302.419C312.385 37.86 319.73 40.2217 324.454 44.945C329.177 49.6683 331.539 57.0133 331.539 66.98V96.88C331.539 106.803 329.177 114.148 324.454 118.915C319.73 123.638 312.385 126 302.419 126H286.819ZM286.819 115.08H302.419C307.055 115.08 310.695 114.538 313.339 113.455C315.982 112.328 317.845 110.443 318.929 107.8C320.055 105.157 320.619 101.517 320.619 96.88V66.98C320.619 62.3867 320.055 58.7683 318.929 56.125C317.845 53.4817 315.982 51.5967 313.339 50.47C310.695 49.3433 307.055 48.78 302.419 48.78H286.819C282.225 48.7367 278.607 49.2567 275.964 50.34C273.32 51.4233 271.435 53.2867 270.309 55.93C269.182 58.5733 268.619 62.2133 268.619 66.85V96.88C268.619 101.517 269.16 105.157 270.244 107.8C271.37 110.443 273.255 112.328 275.899 113.455C278.542 114.538 282.182 115.08 286.819 115.08ZM360.859 126C357.219 126 355.399 124.18 355.399 120.54V43.32C355.399 39.68 357.219 37.86 360.859 37.86C363.242 37.86 365.236 39.03 366.839 41.37L397.519 87.52L395.179 87.91L426.119 41.37C427.592 39.03 429.802 37.86 432.749 37.86C435.696 37.86 437.169 39.68 437.169 43.32V120.54C437.169 124.18 435.349 126 431.709 126C428.069 126 426.249 124.18 426.249 120.54V54.24L429.629 55.41L402.329 95.58C400.726 97.92 398.516 99.09 395.699 99.09C393.749 99.09 391.972 97.92 390.369 95.58L363.069 55.41L366.319 56.32V120.54C366.319 124.18 364.499 126 360.859 126ZM460.038 125.48C456.571 124.137 455.531 121.753 456.918 118.33L487.858 42.15C489.158 39.29 491.194 37.86 493.968 37.86H494.228C497.044 37.99 498.951 39.42 499.948 42.15L531.408 118.33C532.794 121.753 531.798 124.137 528.418 125.48C524.994 126.823 522.611 125.827 521.268 122.49L514.248 105.46H473.753L467.058 122.49C465.714 125.87 463.374 126.867 460.038 125.48ZM478.043 94.54H509.763L493.578 55.15L478.043 94.54ZM556.24 126C552.6 126 550.78 124.18 550.78 120.54V43.32C550.78 39.68 552.6 37.86 556.24 37.86C558.623 37.86 560.616 39.03 562.22 41.37L592.9 87.52L590.56 87.91L621.5 41.37C622.973 39.03 625.183 37.86 628.13 37.86C631.076 37.86 632.55 39.68 632.55 43.32V120.54C632.55 124.18 630.73 126 627.09 126C623.45 126 621.63 124.18 621.63 120.54V54.24L625.01 55.41L597.71 95.58C596.106 97.92 593.896 99.09 591.08 99.09C589.13 99.09 587.353 97.92 585.75 95.58L558.45 55.41L561.7 56.32V120.54C561.7 124.18 559.88 126 556.24 126ZM685.579 126C675.655 126 668.31 123.638 663.544 118.915C658.82 114.148 656.459 106.803 656.459 96.88V66.85C656.459 56.84 658.842 49.495 663.609 44.815C668.375 40.0917 675.699 37.7733 685.579 37.86H701.179C711.145 37.86 718.49 40.2217 723.214 44.945C727.937 49.6683 730.299 57.0133 730.299 66.98V96.88C730.299 106.803 727.937 114.148 723.214 118.915C718.49 123.638 711.145 126 701.179 126H685.579ZM685.579 115.08H701.179C705.815 115.08 709.455 114.538 712.099 113.455C714.742 112.328 716.605 110.443 717.689 107.8C718.815 105.157 719.379 101.517 719.379 96.88V66.98C719.379 62.3867 718.815 58.7683 717.689 56.125C716.605 53.4817 714.742 51.5967 712.099 50.47C709.455 49.3433 705.815 48.78 701.179 48.78H685.579C680.985 48.7367 677.367 49.2567 674.724 50.34C672.08 51.4233 670.195 53.2867 669.069 55.93C667.942 58.5733 667.379 62.2133 667.379 66.85V96.88C667.379 101.517 667.92 105.157 669.004 107.8C670.13 110.443 672.015 112.328 674.659 113.455C677.302 114.538 680.942 115.08 685.579 115.08Z"/>
</mask>
<path d="M189.98 126C186.34 126 184.52 124.18 184.52 120.54V43.32C184.52 39.68 186.34 37.86 189.98 37.86C193.62 37.86 195.44 39.68 195.44 43.32V74.195L228.59 39.94C231.103 37.2533 233.66 37.21 236.26 39.81C238.947 42.3233 238.99 44.88 236.39 47.48L208.765 76.015L241.33 116.51C243.54 119.413 243.28 121.97 240.55 124.18C237.733 126.477 235.177 126.217 232.88 123.4L201.095 84.01L195.44 89.86V120.54C195.44 124.18 193.62 126 189.98 126ZM286.819 126C276.895 126 269.55 123.638 264.784 118.915C260.06 114.148 257.699 106.803 257.699 96.88V66.85C257.699 56.84 260.082 49.495 264.849 44.815C269.615 40.0917 276.939 37.7733 286.819 37.86H302.419C312.385 37.86 319.73 40.2217 324.454 44.945C329.177 49.6683 331.539 57.0133 331.539 66.98V96.88C331.539 106.803 329.177 114.148 324.454 118.915C319.73 123.638 312.385 126 302.419 126H286.819ZM286.819 115.08H302.419C307.055 115.08 310.695 114.538 313.339 113.455C315.982 112.328 317.845 110.443 318.929 107.8C320.055 105.157 320.619 101.517 320.619 96.88V66.98C320.619 62.3867 320.055 58.7683 318.929 56.125C317.845 53.4817 315.982 51.5967 313.339 50.47C310.695 49.3433 307.055 48.78 302.419 48.78H286.819C282.225 48.7367 278.607 49.2567 275.964 50.34C273.32 51.4233 271.435 53.2867 270.309 55.93C269.182 58.5733 268.619 62.2133 268.619 66.85V96.88C268.619 101.517 269.16 105.157 270.244 107.8C271.37 110.443 273.255 112.328 275.899 113.455C278.542 114.538 282.182 115.08 286.819 115.08ZM360.859 126C357.219 126 355.399 124.18 355.399 120.54V43.32C355.399 39.68 357.219 37.86 360.859 37.86C363.242 37.86 365.236 39.03 366.839 41.37L397.519 87.52L395.179 87.91L426.119 41.37C427.592 39.03 429.802 37.86 432.749 37.86C435.696 37.86 437.169 39.68 437.169 43.32V120.54C437.169 124.18 435.349 126 431.709 126C428.069 126 426.249 124.18 426.249 120.54V54.24L429.629 55.41L402.329 95.58C400.726 97.92 398.516 99.09 395.699 99.09C393.749 99.09 391.972 97.92 390.369 95.58L363.069 55.41L366.319 56.32V120.54C366.319 124.18 364.499 126 360.859 126ZM460.038 125.48C456.571 124.137 455.531 121.753 456.918 118.33L487.858 42.15C489.158 39.29 491.194 37.86 493.968 37.86H494.228C497.044 37.99 498.951 39.42 499.948 42.15L531.408 118.33C532.794 121.753 531.798 124.137 528.418 125.48C524.994 126.823 522.611 125.827 521.268 122.49L514.248 105.46H473.753L467.058 122.49C465.714 125.87 463.374 126.867 460.038 125.48ZM478.043 94.54H509.763L493.578 55.15L478.043 94.54ZM556.24 126C552.6 126 550.78 124.18 550.78 120.54V43.32C550.78 39.68 552.6 37.86 556.24 37.86C558.623 37.86 560.616 39.03 562.22 41.37L592.9 87.52L590.56 87.91L621.5 41.37C622.973 39.03 625.183 37.86 628.13 37.86C631.076 37.86 632.55 39.68 632.55 43.32V120.54C632.55 124.18 630.73 126 627.09 126C623.45 126 621.63 124.18 621.63 120.54V54.24L625.01 55.41L597.71 95.58C596.106 97.92 593.896 99.09 591.08 99.09C589.13 99.09 587.353 97.92 585.75 95.58L558.45 55.41L561.7 56.32V120.54C561.7 124.18 559.88 126 556.24 126ZM685.579 126C675.655 126 668.31 123.638 663.544 118.915C658.82 114.148 656.459 106.803 656.459 96.88V66.85C656.459 56.84 658.842 49.495 663.609 44.815C668.375 40.0917 675.699 37.7733 685.579 37.86H701.179C711.145 37.86 718.49 40.2217 723.214 44.945C727.937 49.6683 730.299 57.0133 730.299 66.98V96.88C730.299 106.803 727.937 114.148 723.214 118.915C718.49 123.638 711.145 126 701.179 126H685.579ZM685.579 115.08H701.179C705.815 115.08 709.455 114.538 712.099 113.455C714.742 112.328 716.605 110.443 717.689 107.8C718.815 105.157 719.379 101.517 719.379 96.88V66.98C719.379 62.3867 718.815 58.7683 717.689 56.125C716.605 53.4817 714.742 51.5967 712.099 50.47C709.455 49.3433 705.815 48.78 701.179 48.78H685.579C680.985 48.7367 677.367 49.2567 674.724 50.34C672.08 51.4233 670.195 53.2867 669.069 55.93C667.942 58.5733 667.379 62.2133 667.379 66.85V96.88C667.379 101.517 667.92 105.157 669.004 107.8C670.13 110.443 672.015 112.328 674.659 113.455C677.302 114.538 680.942 115.08 685.579 115.08Z" fill="white"/>
<path d="M195.44 74.195H194.44V76.6663L196.159 74.8904L195.44 74.195ZM228.59 39.94L229.309 40.6354L229.314 40.6293L229.32 40.6231L228.59 39.94ZM236.26 39.81L235.553 40.5171L235.565 40.5289L235.577 40.5403L236.26 39.81ZM236.39 47.48L235.683 46.7729L235.677 46.7786L235.672 46.7844L236.39 47.48ZM208.765 76.015L208.047 75.3194L207.432 75.9537L207.986 76.6417L208.765 76.015ZM241.33 116.51L242.126 115.904L242.118 115.894L242.109 115.883L241.33 116.51ZM240.55 124.18L239.921 123.403L239.918 123.405L240.55 124.18ZM232.88 123.4L232.102 124.028L232.105 124.032L232.88 123.4ZM201.095 84.01L201.873 83.382L201.163 82.5013L200.376 83.315L201.095 84.01ZM195.44 89.86L194.721 89.165L194.44 89.4557V89.86H195.44ZM189.98 125C188.314 125 187.248 124.584 186.592 123.928C185.936 123.272 185.52 122.206 185.52 120.54H183.52C183.52 122.514 184.014 124.178 185.178 125.342C186.342 126.506 188.006 127 189.98 127V125ZM185.52 120.54V43.32H183.52V120.54H185.52ZM185.52 43.32C185.52 41.6541 185.936 40.5884 186.592 39.9321C187.248 39.2758 188.314 38.86 189.98 38.86V36.86C188.006 36.86 186.342 37.3542 185.178 38.5179C184.014 39.6816 183.52 41.3459 183.52 43.32H185.52ZM189.98 38.86C191.646 38.86 192.712 39.2758 193.368 39.9321C194.024 40.5884 194.44 41.6541 194.44 43.32H196.44C196.44 41.3459 195.946 39.6816 194.782 38.5179C193.618 37.3542 191.954 36.86 189.98 36.86V38.86ZM194.44 43.32V74.195H196.44V43.32H194.44ZM196.159 74.8904L229.309 40.6354L227.871 39.2446L194.721 73.4996L196.159 74.8904ZM229.32 40.6231C230.474 39.39 231.502 38.9077 232.409 38.8924C233.317 38.877 234.36 39.324 235.553 40.5171L236.967 39.1029C235.56 37.696 234.025 36.8647 232.376 36.8926C230.726 36.9206 229.219 37.8033 227.86 39.2568L229.32 40.6231ZM235.577 40.5403C236.81 41.6938 237.292 42.7222 237.308 43.6294C237.323 44.5366 236.876 45.5798 235.683 46.7729L237.097 48.1871C238.504 46.7802 239.335 45.2451 239.307 43.5956C239.279 41.9462 238.397 40.4395 236.943 39.0797L235.577 40.5403ZM235.672 46.7844L208.047 75.3194L209.483 76.7106L237.108 48.1756L235.672 46.7844ZM207.986 76.6417L240.551 117.137L242.109 115.883L209.544 75.3883L207.986 76.6417ZM240.534 117.116C241.55 118.45 241.893 119.567 241.798 120.504C241.703 121.432 241.157 122.402 239.921 123.403L241.179 124.957C242.673 123.748 243.622 122.335 243.787 120.706C243.952 119.086 243.32 117.473 242.126 115.904L240.534 117.116ZM239.918 123.405C238.629 124.456 237.543 124.806 236.621 124.713C235.7 124.619 234.706 124.057 233.655 122.768L232.105 124.032C233.351 125.56 234.784 126.536 236.419 126.702C238.054 126.869 239.654 126.201 241.182 124.955L239.918 123.405ZM233.658 122.772L201.873 83.382L200.317 84.638L232.102 124.028L233.658 122.772ZM200.376 83.315L194.721 89.165L196.159 90.555L201.814 84.705L200.376 83.315ZM194.44 89.86V120.54H196.44V89.86H194.44ZM194.44 120.54C194.44 122.206 194.024 123.272 193.368 123.928C192.712 124.584 191.646 125 189.98 125V127C191.954 127 193.618 126.506 194.782 125.342C195.946 124.178 196.44 122.514 196.44 120.54H194.44ZM264.784 118.915L264.073 119.619L264.08 119.625L264.784 118.915ZM264.849 44.815L265.549 45.5286L265.553 45.5253L264.849 44.815ZM286.819 37.86L286.81 38.86H286.819V37.86ZM324.454 44.945L325.161 44.2379L325.161 44.2379L324.454 44.945ZM324.454 118.915L325.161 119.622L325.164 119.619L324.454 118.915ZM313.339 113.455L313.718 114.38L313.731 114.375L313.339 113.455ZM318.929 107.8L318.009 107.408L318.004 107.421L318.929 107.8ZM318.929 56.125L318.003 56.5043L318.009 56.5171L318.929 56.125ZM313.339 50.47L313.731 49.5501L313.339 50.47ZM286.819 48.78L286.809 49.78H286.819V48.78ZM275.964 50.34L275.585 49.4147L275.585 49.4147L275.964 50.34ZM270.309 55.93L269.389 55.5379L269.389 55.5379L270.309 55.93ZM270.244 107.8L269.318 108.179L269.324 108.192L270.244 107.8ZM275.899 113.455L275.507 114.375L275.52 114.38L275.899 113.455ZM286.819 125C277.034 125 269.994 122.67 265.488 118.205L264.08 119.625C269.107 124.607 276.757 127 286.819 127V125ZM265.494 118.211C261.029 113.705 258.699 106.665 258.699 96.88H256.699C256.699 106.942 259.092 114.592 264.074 119.619L265.494 118.211ZM258.699 96.88V66.85H256.699V96.88H258.699ZM258.699 66.85C258.699 56.9758 261.052 49.9444 265.549 45.5286L264.148 44.1014C259.113 49.0456 256.699 56.7042 256.699 66.85H258.699ZM265.553 45.5253C270.056 41.0627 277.071 38.7745 286.81 38.86L286.828 36.86C276.806 36.7721 269.175 39.1206 264.145 44.1047L265.553 45.5253ZM286.819 38.86H302.419V36.86H286.819V38.86ZM302.419 38.86C312.25 38.86 319.286 41.1913 323.747 45.6521L325.161 44.2379C320.175 39.252 312.521 36.86 302.419 36.86V38.86ZM323.747 45.6521C328.208 50.1129 330.539 57.1493 330.539 66.98H332.539C332.539 56.8774 330.147 49.2237 325.161 44.2379L323.747 45.6521ZM330.539 66.98V96.88H332.539V66.98H330.539ZM330.539 96.88C330.539 106.665 328.209 113.705 323.744 118.211L325.164 119.619C330.146 114.592 332.539 106.942 332.539 96.88H330.539ZM323.747 118.208C319.286 122.669 312.25 125 302.419 125V127C312.521 127 320.175 124.608 325.161 119.622L323.747 118.208ZM302.419 125H286.819V127H302.419V125ZM286.819 116.08H302.419V114.08H286.819V116.08ZM302.419 116.08C307.115 116.08 310.903 115.534 313.718 114.38L312.96 112.53C310.488 113.542 306.996 114.08 302.419 114.08V116.08ZM313.731 114.375C316.615 113.146 318.67 111.067 319.854 108.179L318.004 107.421C317.021 109.819 315.35 111.511 312.947 112.535L313.731 114.375ZM319.849 108.192C321.051 105.372 321.619 101.579 321.619 96.88H319.619C319.619 101.455 319.06 104.941 318.009 107.408L319.849 108.192ZM321.619 96.88V66.98H319.619V96.88H321.619ZM321.619 66.98C321.619 62.3232 321.05 58.5523 319.849 55.7329L318.009 56.5171C319.061 58.9844 319.619 62.4501 319.619 66.98H321.619ZM319.854 55.7458C318.67 52.8575 316.615 50.7792 313.731 49.5501L312.947 51.3899C315.35 52.4142 317.021 54.1058 318.004 56.5042L319.854 55.7458ZM313.731 49.5501C310.911 48.348 307.117 47.78 302.419 47.78V49.78C306.994 49.78 310.48 50.3386 312.947 51.3899L313.731 49.5501ZM302.419 47.78H286.819V49.78H302.419V47.78ZM286.828 47.78C282.173 47.7361 278.403 48.2594 275.585 49.4147L276.343 51.2653C278.811 50.2539 282.278 49.7372 286.809 49.78L286.828 47.78ZM275.585 49.4147C272.696 50.5984 270.618 52.6542 269.389 55.5379L271.229 56.3221C272.253 53.9191 273.945 52.2483 276.343 51.2653L275.585 49.4147ZM269.389 55.5379C268.187 58.3581 267.619 62.1514 267.619 66.85H269.619C269.619 62.2753 270.177 58.7885 271.229 56.3221L269.389 55.5379ZM267.619 66.85V96.88H269.619V66.85H267.619ZM267.619 96.88C267.619 101.576 268.165 105.364 269.319 108.179L271.169 107.421C270.156 104.95 269.619 101.458 269.619 96.88H267.619ZM269.324 108.192C270.552 111.073 272.626 113.147 275.507 114.375L276.291 112.535C273.885 111.51 272.189 109.814 271.164 107.408L269.324 108.192ZM275.52 114.38C278.335 115.534 282.123 116.08 286.819 116.08V114.08C282.241 114.08 278.749 113.542 276.278 112.53L275.52 114.38ZM366.839 41.37L367.672 40.8163L367.664 40.8048L366.839 41.37ZM397.519 87.52L397.683 88.5064L399.207 88.2525L398.352 86.9664L397.519 87.52ZM395.179 87.91L394.346 87.3564L393.071 89.2752L395.343 88.8964L395.179 87.91ZM426.119 41.37L426.952 41.9236L426.959 41.9133L426.965 41.9028L426.119 41.37ZM426.249 54.24L426.576 53.295L425.249 52.8356V54.24H426.249ZM429.629 55.41L430.456 55.9721L431.19 54.8921L429.956 54.465L429.629 55.41ZM402.329 95.58L403.154 96.1452L403.156 96.1421L402.329 95.58ZM390.369 95.58L389.542 96.1421L389.544 96.1452L390.369 95.58ZM363.069 55.41L363.339 54.447L360.704 53.7094L362.242 55.9721L363.069 55.41ZM366.319 56.32H367.319V55.5615L366.589 55.357L366.319 56.32ZM360.859 125C359.193 125 358.127 124.584 357.471 123.928C356.815 123.272 356.399 122.206 356.399 120.54H354.399C354.399 122.514 354.893 124.178 356.057 125.342C357.22 126.506 358.885 127 360.859 127V125ZM356.399 120.54V43.32H354.399V120.54H356.399ZM356.399 43.32C356.399 41.6541 356.815 40.5884 357.471 39.9321C358.127 39.2758 359.193 38.86 360.859 38.86V36.86C358.885 36.86 357.22 37.3542 356.057 38.5179C354.893 39.6816 354.399 41.3459 354.399 43.32H356.399ZM360.859 38.86C362.846 38.86 364.556 39.808 366.014 41.9352L367.664 40.8048C365.915 38.252 363.638 36.86 360.859 36.86V38.86ZM366.006 41.9236L396.686 88.0736L398.352 86.9664L367.672 40.8164L366.006 41.9236ZM397.355 86.5336L395.015 86.9236L395.343 88.8964L397.683 88.5064L397.355 86.5336ZM396.012 88.4636L426.952 41.9236L425.286 40.8164L394.346 87.3564L396.012 88.4636ZM426.965 41.9028C428.241 39.8758 430.119 38.86 432.749 38.86V36.86C429.486 36.86 426.943 38.1842 425.273 40.8372L426.965 41.9028ZM432.749 38.86C434.006 38.86 434.788 39.2377 435.287 39.8542C435.818 40.5111 436.169 41.6089 436.169 43.32H438.169C438.169 41.3911 437.783 39.7589 436.841 38.5958C435.867 37.3923 434.439 36.86 432.749 36.86V38.86ZM436.169 43.32V120.54H438.169V43.32H436.169ZM436.169 120.54C436.169 122.206 435.753 123.272 435.097 123.928C434.44 124.584 433.375 125 431.709 125V127C433.683 127 435.347 126.506 436.511 125.342C437.675 124.178 438.169 122.514 438.169 120.54H436.169ZM431.709 125C430.043 125 428.977 124.584 428.321 123.928C427.665 123.272 427.249 122.206 427.249 120.54H425.249C425.249 122.514 425.743 124.178 426.907 125.342C428.07 126.506 429.735 127 431.709 127V125ZM427.249 120.54V54.24H425.249V120.54H427.249ZM425.922 55.185L429.302 56.355L429.956 54.465L426.576 53.295L425.922 55.185ZM428.802 54.8479L401.502 95.0179L403.156 96.1421L430.456 55.9721L428.802 54.8479ZM401.504 95.0148C400.086 97.085 398.183 98.09 395.699 98.09V100.09C398.848 100.09 401.366 98.755 403.154 96.1452L401.504 95.0148ZM395.699 98.09C394.212 98.09 392.701 97.2146 391.194 95.0148L389.544 96.1452C391.243 98.6254 393.286 100.09 395.699 100.09V98.09ZM391.196 95.0179L363.896 54.8479L362.242 55.9721L389.542 96.1421L391.196 95.0179ZM362.799 56.373L366.049 57.283L366.589 55.357L363.339 54.447L362.799 56.373ZM365.319 56.32V120.54H367.319V56.32H365.319ZM365.319 120.54C365.319 122.206 364.903 123.272 364.247 123.928C363.59 124.584 362.525 125 360.859 125V127C362.833 127 364.497 126.506 365.661 125.342C366.825 124.178 367.319 122.514 367.319 120.54H365.319ZM460.038 125.48L460.421 124.557L460.41 124.552L460.399 124.548L460.038 125.48ZM456.918 118.33L455.991 117.954L455.991 117.955L456.918 118.33ZM487.858 42.15L486.947 41.7362L486.939 41.7548L486.931 41.7737L487.858 42.15ZM494.228 37.86L494.274 36.8611L494.251 36.86H494.228V37.86ZM499.948 42.15L499.008 42.4929L499.016 42.5125L499.023 42.5317L499.948 42.15ZM531.408 118.33L532.335 117.955L532.332 117.948L531.408 118.33ZM528.418 125.48L528.783 126.411L528.787 126.409L528.418 125.48ZM521.268 122.49L522.195 122.117L522.192 122.109L521.268 122.49ZM514.248 105.46L515.172 105.079L514.917 104.46H514.248V105.46ZM473.753 105.46V104.46H473.071L472.822 105.094L473.753 105.46ZM467.058 122.49L467.987 122.859L467.988 122.856L467.058 122.49ZM478.043 94.54L477.112 94.1731L476.573 95.54H478.043V94.54ZM509.763 94.54V95.54H511.255L510.688 94.1599L509.763 94.54ZM493.578 55.15L494.503 54.7699L493.559 52.4726L492.647 54.7831L493.578 55.15ZM460.399 124.548C458.807 123.931 457.949 123.144 457.574 122.285C457.2 121.428 457.209 120.274 457.845 118.705L455.991 117.955C455.24 119.809 455.075 121.559 455.741 123.085C456.407 124.61 457.802 125.686 459.676 126.412L460.399 124.548ZM457.844 118.706L488.784 42.5263L486.931 41.7737L455.991 117.954L457.844 118.706ZM488.768 42.5638C489.363 41.2542 490.096 40.3398 490.935 39.7509C491.766 39.1675 492.762 38.86 493.968 38.86V36.86C492.4 36.86 490.991 37.2675 489.786 38.1141C488.588 38.9552 487.652 40.1858 486.947 41.7362L488.768 42.5638ZM493.968 38.86H494.228V36.86H493.968V38.86ZM494.182 38.8589C495.427 38.9164 496.405 39.2561 497.17 39.83C497.938 40.4055 498.562 41.2697 499.008 42.4929L500.887 41.8071C500.337 40.3003 499.51 39.0845 498.37 38.23C497.229 37.3739 495.845 36.9336 494.274 36.8611L494.182 38.8589ZM499.023 42.5317L530.483 118.712L532.332 117.948L500.872 41.7683L499.023 42.5317ZM530.481 118.705C531.118 120.278 531.137 121.439 530.778 122.299C530.419 123.156 529.592 123.937 528.048 124.551L528.787 126.409C530.623 125.679 531.984 124.598 532.623 123.071C533.26 121.548 533.084 119.805 532.335 117.955L530.481 118.705ZM528.052 124.549C526.48 125.166 525.315 125.18 524.449 124.817C523.587 124.457 522.807 123.636 522.195 122.117L520.34 122.863C521.072 124.681 522.155 126.026 523.677 126.663C525.194 127.297 526.932 127.137 528.783 126.411L528.052 124.549ZM522.192 122.109L515.172 105.079L513.323 105.841L520.343 122.871L522.192 122.109ZM514.248 104.46H473.753V106.46H514.248V104.46ZM472.822 105.094L466.127 122.124L467.988 122.856L474.683 105.826L472.822 105.094ZM466.128 122.121C465.513 123.67 464.739 124.497 463.903 124.852C463.07 125.208 461.947 125.191 460.421 124.557L459.654 126.403C461.465 127.156 463.181 127.334 464.687 126.693C466.192 126.052 467.26 124.69 467.987 122.859L466.128 122.121ZM478.043 95.54H509.763V93.54H478.043V95.54ZM510.688 94.1599L494.503 54.7699L492.653 55.5301L508.838 94.9201L510.688 94.1599ZM492.647 54.7831L477.112 94.1731L478.973 94.9069L494.508 55.5169L492.647 54.7831ZM562.22 41.37L563.053 40.8163L563.045 40.8048L562.22 41.37ZM592.9 87.52L593.064 88.5064L594.588 88.2525L593.733 86.9664L592.9 87.52ZM590.56 87.91L589.727 87.3564L588.451 89.2752L590.724 88.8964L590.56 87.91ZM621.5 41.37L622.333 41.9236L622.339 41.9133L622.346 41.9028L621.5 41.37ZM621.63 54.24L621.957 53.295L620.63 52.8356V54.24H621.63ZM625.01 55.41L625.837 55.9721L626.571 54.8921L625.337 54.465L625.01 55.41ZM597.71 95.58L598.535 96.1452L598.537 96.1421L597.71 95.58ZM585.75 95.58L584.923 96.1421L584.925 96.1452L585.75 95.58ZM558.45 55.41L558.719 54.447L556.085 53.7094L557.623 55.9721L558.45 55.41ZM561.7 56.32H562.7V55.5615L561.969 55.357L561.7 56.32ZM556.24 125C554.574 125 553.508 124.584 552.852 123.928C552.196 123.272 551.78 122.206 551.78 120.54H549.78C549.78 122.514 550.274 124.178 551.438 125.342C552.601 126.506 554.266 127 556.24 127V125ZM551.78 120.54V43.32H549.78V120.54H551.78ZM551.78 43.32C551.78 41.6541 552.196 40.5884 552.852 39.9321C553.508 39.2758 554.574 38.86 556.24 38.86V36.86C554.266 36.86 552.601 37.3542 551.438 38.5179C550.274 39.6816 549.78 41.3459 549.78 43.32H551.78ZM556.24 38.86C558.227 38.86 559.937 39.808 561.395 41.9352L563.045 40.8048C561.296 38.252 559.019 36.86 556.24 36.86V38.86ZM561.387 41.9236L592.067 88.0736L593.733 86.9664L563.053 40.8164L561.387 41.9236ZM592.735 86.5336L590.395 86.9236L590.724 88.8964L593.064 88.5064L592.735 86.5336ZM591.393 88.4636L622.333 41.9236L620.667 40.8164L589.727 87.3564L591.393 88.4636ZM622.346 41.9028C623.622 39.8758 625.5 38.86 628.13 38.86V36.86C624.867 36.86 622.324 38.1842 620.654 40.8372L622.346 41.9028ZM628.13 38.86C629.386 38.86 630.168 39.2377 630.668 39.8542C631.199 40.5111 631.55 41.6089 631.55 43.32H633.55C633.55 41.3911 633.164 39.7589 632.222 38.5958C631.248 37.3923 629.82 36.86 628.13 36.86V38.86ZM631.55 43.32V120.54H633.55V43.32H631.55ZM631.55 120.54C631.55 122.206 631.134 123.272 630.478 123.928C629.821 124.584 628.756 125 627.09 125V127C629.064 127 630.728 126.506 631.892 125.342C633.056 124.178 633.55 122.514 633.55 120.54H631.55ZM627.09 125C625.424 125 624.358 124.584 623.702 123.928C623.046 123.272 622.63 122.206 622.63 120.54H620.63C620.63 122.514 621.124 124.178 622.288 125.342C623.451 126.506 625.116 127 627.09 127V125ZM622.63 120.54V54.24H620.63V120.54H622.63ZM621.303 55.185L624.683 56.355L625.337 54.465L621.957 53.295L621.303 55.185ZM624.183 54.8479L596.883 95.0179L598.537 96.1421L625.837 55.9721L624.183 54.8479ZM596.885 95.0148C595.466 97.085 593.564 98.09 591.08 98.09V100.09C594.229 100.09 596.747 98.755 598.535 96.1452L596.885 95.0148ZM591.08 98.09C589.593 98.09 588.082 97.2146 586.575 95.0148L584.925 96.1452C586.624 98.6254 588.667 100.09 591.08 100.09V98.09ZM586.577 95.0179L559.277 54.8479L557.623 55.9721L584.923 96.1421L586.577 95.0179ZM558.18 56.373L561.43 57.283L561.969 55.357L558.719 54.447L558.18 56.373ZM560.7 56.32V120.54H562.7V56.32H560.7ZM560.7 120.54C560.7 122.206 560.284 123.272 559.628 123.928C558.971 124.584 557.906 125 556.24 125V127C558.214 127 559.878 126.506 561.042 125.342C562.206 124.178 562.7 122.514 562.7 120.54H560.7ZM663.544 118.915L662.833 119.619L662.84 119.625L663.544 118.915ZM663.609 44.815L664.309 45.5286L664.312 45.5253L663.609 44.815ZM685.579 37.86L685.57 38.86H685.579V37.86ZM723.214 44.945L723.921 44.2379L723.921 44.2379L723.214 44.945ZM723.214 118.915L723.921 119.622L723.924 119.619L723.214 118.915ZM712.099 113.455L712.478 114.38L712.491 114.375L712.099 113.455ZM717.689 107.8L716.769 107.408L716.763 107.421L717.689 107.8ZM717.689 56.125L716.763 56.5043L716.769 56.5171L717.689 56.125ZM712.099 50.47L712.491 49.5501L712.099 50.47ZM685.579 48.78L685.569 49.78H685.579V48.78ZM674.724 50.34L674.344 49.4147L674.344 49.4147L674.724 50.34ZM669.069 55.93L668.149 55.5379L668.149 55.5379L669.069 55.93ZM669.004 107.8L668.078 108.179L668.084 108.192L669.004 107.8ZM674.659 113.455L674.266 114.375L674.279 114.38L674.659 113.455ZM685.579 125C675.794 125 668.754 122.67 664.247 118.205L662.84 119.625C667.867 124.607 675.517 127 685.579 127V125ZM664.254 118.211C659.789 113.705 657.459 106.665 657.459 96.88H655.459C655.459 106.942 657.852 114.592 662.833 119.619L664.254 118.211ZM657.459 96.88V66.85H655.459V96.88H657.459ZM657.459 66.85C657.459 56.9758 659.812 49.9444 664.309 45.5286L662.908 44.1014C657.872 49.0456 655.459 56.7042 655.459 66.85H657.459ZM664.312 45.5253C668.816 41.0627 675.831 38.7745 685.57 38.86L685.587 36.86C675.566 36.7721 667.934 39.1206 662.905 44.1047L664.312 45.5253ZM685.579 38.86H701.179V36.86H685.579V38.86ZM701.179 38.86C711.009 38.86 718.046 41.1913 722.506 45.6521L723.921 44.2379C718.935 39.252 711.281 36.86 701.179 36.86V38.86ZM722.506 45.6521C726.967 50.1129 729.299 57.1493 729.299 66.98H731.299C731.299 56.8774 728.907 49.2237 723.921 44.2379L722.506 45.6521ZM729.299 66.98V96.88H731.299V66.98H729.299ZM729.299 96.88C729.299 106.665 726.968 113.705 722.503 118.211L723.924 119.619C728.905 114.592 731.299 106.942 731.299 96.88H729.299ZM722.506 118.208C718.046 122.669 711.009 125 701.179 125V127C711.281 127 718.935 124.608 723.921 119.622L722.506 118.208ZM701.179 125H685.579V127H701.179V125ZM685.579 116.08H701.179V114.08H685.579V116.08ZM701.179 116.08C705.874 116.08 709.662 115.534 712.478 114.38L711.719 112.53C709.248 113.542 705.756 114.08 701.179 114.08V116.08ZM712.491 114.375C715.374 113.146 717.43 111.067 718.614 108.179L716.763 107.421C715.78 109.819 714.11 111.511 711.706 112.535L712.491 114.375ZM718.609 108.192C719.811 105.372 720.379 101.579 720.379 96.88H718.379C718.379 101.455 717.82 104.941 716.769 107.408L718.609 108.192ZM720.379 96.88V66.98H718.379V96.88H720.379ZM720.379 66.98C720.379 62.3232 719.81 58.5523 718.609 55.7329L716.769 56.5171C717.82 58.9844 718.379 62.4501 718.379 66.98H720.379ZM718.614 55.7458C717.43 52.8575 715.374 50.7792 712.491 49.5501L711.706 51.3899C714.11 52.4142 715.78 54.1058 716.763 56.5042L718.614 55.7458ZM712.491 49.5501C709.67 48.348 705.877 47.78 701.179 47.78V49.78C705.753 49.78 709.24 50.3386 711.706 51.3899L712.491 49.5501ZM701.179 47.78H685.579V49.78H701.179V47.78ZM685.588 47.78C680.933 47.7361 677.163 48.2594 674.344 49.4147L675.103 51.2653C677.571 50.2539 681.038 49.7372 685.569 49.78L685.588 47.78ZM674.344 49.4147C671.456 50.5984 669.378 52.6542 668.149 55.5379L669.989 56.3221C671.013 53.9191 672.704 52.2483 675.103 51.2653L674.344 49.4147ZM668.149 55.5379C666.947 58.3581 666.379 62.1514 666.379 66.85H668.379C668.379 62.2753 668.937 58.7885 669.989 56.3221L668.149 55.5379ZM666.379 66.85V96.88H668.379V66.85H666.379ZM666.379 96.88C666.379 101.576 666.924 105.364 668.078 108.179L669.929 107.421C668.916 104.95 668.379 101.458 668.379 96.88H666.379ZM668.084 108.192C669.312 111.073 671.386 113.147 674.266 114.375L675.051 112.535C672.645 111.51 670.949 109.814 669.924 107.408L668.084 108.192ZM674.279 114.38C677.095 115.534 680.883 116.08 685.579 116.08V114.08C681.001 114.08 677.509 113.542 675.038 112.53L674.279 114.38Z" fill="white" mask="url(#path-2-outside-1_268_1203)"/>
</svg>
